<svg xmlns:dc="http://purl.org/dc/elements/1.1/" xmlns:cc="http://creativecommons.org/ns#" xmlns:rdf="http://www.w3.org/1999/02/22-rdf-syntax-ns#" xmlns:svg="http://www.w3.org/2000/svg" xmlns="http://www.w3.org/2000/svg" xmlns:sodipodi="http://sodipodi.sourceforge.net/DTD/sodipodi-0.dtd" xmlns:inkscape="http://www.inkscape.org/namespaces/inkscape" viewBox="0 0 8.4666665 10.583333625" version="1.1" x="0px" y="0px"><g transform="translate(0,-288.53332)"><path style="color:#000000;font-style:normal;font-variant:normal;font-weight:normal;font-stretch:normal;font-size:medium;line-height:normal;font-family:sans-serif;font-variant-ligatures:normal;font-variant-position:normal;font-variant-caps:normal;font-variant-numeric:normal;font-variant-alternates:normal;font-feature-settings:normal;text-indent:0;text-align:start;text-decoration:none;text-decoration-line:none;text-decoration-style:solid;text-decoration-color:#000000;letter-spacing:normal;word-spacing:normal;text-transform:none;writing-mode:lr-tb;direction:ltr;text-orientation:mixed;dominant-baseline:auto;baseline-shift:baseline;text-anchor:start;white-space:normal;shape-padding:0;clip-rule:nonzero;display:inline;overflow:visible;visibility:visible;opacity:1;isolation:auto;mix-blend-mode:normal;color-interpolation:sRGB;color-interpolation-filters:linearRGB;solid-color:#000000;solid-opacity:1;vector-effect:none;fill:#000000;fill-opacity:1;fill-rule:nonzero;stroke:none;stroke-width:0.52916664;stroke-linecap:square;stroke-linejoin:miter;stroke-miterlimit:4;stroke-dasharray:none;stroke-dashoffset:0;stroke-opacity:1;paint-order:markers fill stroke;color-rendering:auto;image-rendering:auto;shape-rendering:auto;text-rendering:auto;enable-background:accumulate" d="m 2.910934,290.25311 v 3.05821 c -0.156484,-0.0917 -0.336007,-0.14831 -0.529167,-0.14831 -0.581368,0 -1.058334,0.47748 -1.058333,1.05885 -10e-7,0.58136 0.476965,1.05834 1.058333,1.05834 0.581368,0 1.05885,-0.47698 1.05885,-1.05834 v -3.43958 h 3.17345 v 2.52904 c -0.1564841,-0.0917 -0.3360071,-0.1483 -0.529167,-0.1483 -0.5813681,0 -1.05885,0.47748 -1.05885,1.05885 0,0.58137 0.4774819,1.05833 1.05885,1.05833 0.5813669,0 1.0583328,-0.47698 1.0583328,-1.05833 v -3.96875 z m -0.529167,3.43959 c 0.295385,0 0.529167,0.23377 0.529167,0.52916 0,0.29538 -0.233782,0.52917 -0.529167,0.52917 -0.295385,0 -0.529167,-0.23379 -0.529167,-0.52917 0,-0.29539 0.233782,-0.52916 0.529167,-0.52916 z m 3.703133,0 c 0.2953848,0 0.529167,0.23377 0.529167,0.52916 0,0.29538 -0.2337822,0.52917 -0.529167,0.52917 -0.295384,0 -0.5291672,-0.23379 -0.5291672,-0.52917 0,-0.29539 0.2337832,-0.52916 0.5291672,-0.52916 z"/></g></svg>