<svg xmlns:dc="http://purl.org/dc/elements/1.1/" xmlns:cc="http://creativecommons.org/ns#" xmlns:rdf="http://www.w3.org/1999/02/22-rdf-syntax-ns#" xmlns:svg="http://www.w3.org/2000/svg" xmlns="http://www.w3.org/2000/svg" xmlns:sodipodi="http://sodipodi.sourceforge.net/DTD/sodipodi-0.dtd" xmlns:inkscape="http://www.inkscape.org/namespaces/inkscape" viewBox="0 0 8.4666665 10.583333625" version="1.1" x="0px" y="0px"><g transform="translate(0,-288.53332)"><path d="m 6.7415648,290.64208 c -0.1481656,0 -0.2751645,0.127 -0.2539981,0.27516 v 3.70414 c -0.021166,0.35983 0.5291627,0.35983 0.5291627,0 v -3.70414 c 0,-0.14816 -0.126999,-0.27516 -0.2751646,-0.27516 z m -5.0376294,0 c -0.1481655,0 -0.2539981,0.127 -0.2539981,0.27516 v 3.70414 c 0,0.1905 0.2116651,0.3175 0.3809972,0.23284 l 3.7041393,-1.86266 c 0.1904984,-0.0847 0.1904984,-0.38099 0,-0.46566 l -3.7041393,-1.86265 c -0.042333,-0.0212 -0.084666,-0.0212 -0.1269991,-0.0212 z m 0.2751647,0.69849 2.8574787,1.41816 -2.8574787,1.41816 z" style="" fill="#000000" fill-opacity="1" fill-rule="nonzero" stroke="none"/></g><text x="0" y="23.4666669" fill="#000000" font-size="5px" font-weight="bold" font-family="'Helvetica Neue', Helvetica, Arial-Unicode, Arial, Sans-serif">Created by Arshit Patel</text><text x="0" y="28.4666669" fill="#000000" font-size="5px" font-weight="bold" font-family="'Helvetica Neue', Helvetica, Arial-Unicode, Arial, Sans-serif">from the Noun Project</text></svg>